<svg width="25" height="28" viewBox="0 0 25 28" fill="none" xmlns="http://www.w3.org/2000/svg">
<path d="M18.4437 18.1862C21.6145 16.3742 24.0182 14.9934 24.2254 14.886C24.8882 14.5192 25.5726 13.5482 24.2254 12.7941C23.7904 12.5569 21.4485 11.2191 18.4437 9.49385L14.2783 13.8723L18.4437 18.1861V18.1862Z" fill="#FFD900"/>
<path d="M14.2783 13.8722L1.01514 27.785C1.32645 27.8279 1.67792 27.742 2.09229 27.5049C2.96226 27.0093 12.1847 21.7673 18.4437 18.1872L14.2783 13.8722Z" fill="#F43249"/>
<path d="M14.2784 13.8722L18.4438 9.51537C18.4438 9.51537 3.02527 0.757427 2.09239 0.240436C1.74093 0.0237774 1.34707 -0.0405796 0.994629 0.0237774L14.2784 13.8722Z" fill="#00EE76"/>
<path d="M14.2784 13.8722L0.994708 0.0237465C0.455594 0.153477 0 0.64922 0 1.66307V26.1457C0 27.0736 0.352539 27.742 1.01532 27.8065L14.2784 13.8722Z" fill="#00D3FF"/>
</svg>
