<svg width="48" height="58" viewBox="0 0 48 58" fill="none" xmlns="http://www.w3.org/2000/svg">
<path d="M39.88 30.7701C39.81 23.5401 45.8 20.0201 46.07 19.8601C42.68 14.9101 37.42 14.2401 35.58 14.1901C31.17 13.7301 26.89 16.8301 24.64 16.8301C22.39 16.8301 18.88 14.2301 15.15 14.3101C10.35 14.3901 5.86 17.1701 3.39 21.4801C-1.69 30.2801 2.1 43.2101 6.97 50.3301C9.41 53.8101 12.25 57.7001 15.98 57.5601C19.62 57.41 20.98 55.2401 25.39 55.2401C29.8 55.2401 31.03 57.5601 34.83 57.4701C38.74 57.4101 41.2 53.9701 43.55 50.4501C46.37 46.46 47.5 42.5301 47.54 42.3201C47.45 42.2901 39.94 39.4301 39.87 30.7601" fill="#0A0A0A"/>
<path d="M32.7 9.51003C34.66 7.06003 36.01 3.72003 35.63 0.340027C32.79 0.470027 29.25 2.30003 27.2 4.70003C25.39 6.81003 23.77 10.28 24.19 13.53C27.38 13.77 30.65 11.92 32.7 9.51003Z" fill="#0A0A0A"/>
</svg>
