<svg width="56" height="56" viewBox="0 0 56 56" fill="none" xmlns="http://www.w3.org/2000/svg">
<rect x="0.5" y="0.5" width="55" height="55" rx="7.5" stroke="#7E06F2"/>
<path d="M30.6666 15.026V20.5334C30.6666 21.2801 30.6666 21.6535 30.8119 21.9387C30.9397 22.1896 31.1437 22.3936 31.3946 22.5214C31.6798 22.6667 32.0532 22.6667 32.7999 22.6667H38.3073M23.9999 33.3333L26.6666 36L32.6666 30M30.6666 14.6666H23.7333C21.493 14.6666 20.3729 14.6666 19.5173 15.1026C18.7646 15.4861 18.1527 16.098 17.7692 16.8507C17.3333 17.7063 17.3333 18.8264 17.3333 21.0666V34.9333C17.3333 37.1735 17.3333 38.2936 17.7692 39.1493C18.1527 39.9019 18.7646 40.5138 19.5173 40.8973C20.3729 41.3333 21.493 41.3333 23.7333 41.3333H32.2666C34.5068 41.3333 35.6269 41.3333 36.4825 40.8973C37.2352 40.5138 37.8471 39.9019 38.2306 39.1493C38.6666 38.2936 38.6666 37.1735 38.6666 34.9333V22.6666L30.6666 14.6666Z" stroke="white" stroke-width="2" stroke-linecap="round" stroke-linejoin="round"/>
</svg>
