<svg width="46" height="40" viewBox="0 0 46 40" fill="none" xmlns="http://www.w3.org/2000/svg">
<path d="M13.625 9.58333H19.3541M13.625 17.9167H19.3541M13.625 26.25H19.3541M26.6458 9.58333H32.375M26.6458 17.9167H32.375M26.6458 26.25H32.375M39.6666 38.75V7.91667C39.6666 5.58311 39.6666 4.41634 39.2125 3.52504C38.813 2.74103 38.1756 2.10361 37.3916 1.70414C36.5003 1.25 35.3335 1.25 33 1.25H13C10.6664 1.25 9.49963 1.25 8.60833 1.70414C7.82432 2.10361 7.1869 2.74103 6.78743 3.52504C6.33329 4.41634 6.33329 5.58311 6.33329 7.91667V38.75M43.8333 38.75H2.16663" stroke="url(#paint0_linear_6053_6836)" stroke-width="2.4" stroke-linecap="round" stroke-linejoin="round"/>
<defs>
<linearGradient id="paint0_linear_6053_6836" x1="46.8402" y1="7.12349" x2="-8.91595" y2="13.0606" gradientUnits="userSpaceOnUse">
<stop stop-color="#7E06F2"/>
<stop offset="1" stop-color="#36007C"/>
</linearGradient>
</defs>
</svg>
