<svg width="53" height="58" viewBox="0 0 53 58" fill="none" xmlns="http://www.w3.org/2000/svg">
<path d="M1.58001 1.52002C0.970006 2.21002 0.600006 3.24002 0.600006 4.58002V53.93C0.600006 55.06 0.870007 55.96 1.31001 56.64L28.68 28.95L1.57001 1.52002H1.58001Z" fill="#0A0A0A"/>
<path d="M29.66 27.96L38.11 19.41L6.26 1.31002C4.93 0.560017 3.72 0.400025 2.75 0.740025L29.66 27.96Z" fill="#0A0A0A"/>
<path d="M29.66 29.93L2.33 57.58C3.35 58.14 4.73 58.07 6.27 57.2L38.51 38.88L29.66 29.93Z" fill="#0A0A0A"/>
<path d="M49.78 26.04L39.36 20.12L30.63 28.95L39.75 38.18L49.77 32.49C52.89 30.72 52.89 27.82 49.77 26.05L49.78 26.04Z" fill="#0A0A0A"/>
</svg>
