<svg width="26" height="33" viewBox="0 0 26 33" fill="none" xmlns="http://www.w3.org/2000/svg">
<path d="M6.30201 31.5939C5.68491 31.1716 5.13798 30.6498 4.68225 30.0486C4.18095 29.4279 3.71648 28.7768 3.29137 28.0987C2.29377 26.5954 1.51142 24.9524 0.968336 23.2201C0.315932 21.2078 0 19.2791 0 17.3927C0 15.2859 0.443087 13.4467 1.3097 11.9013C1.95211 10.6934 2.89661 9.68401 4.04549 8.97754C5.15889 8.26619 6.4382 7.8769 7.74865 7.8507C8.20738 7.8507 8.70133 7.91911 9.22561 8.04991C9.60218 8.15957 10.0609 8.33262 10.6214 8.54793C11.3344 8.83065 11.7267 9.0037 11.8597 9.04596C12.2773 9.20291 12.6285 9.27133 12.9043 9.27133C13.1136 9.27133 13.409 9.20291 13.7445 9.09828C13.9333 9.02986 14.2893 8.90913 14.7989 8.68476C15.3036 8.49561 15.7007 8.33363 16.0167 8.2129C16.5008 8.066 16.9694 7.93018 17.387 7.86176C17.8822 7.78147 18.3846 7.7602 18.8845 7.79838C19.7508 7.85662 20.604 8.04543 21.4169 8.35878C22.7461 8.90913 23.8211 9.76835 24.6212 10.9898C24.283 11.2042 23.9656 11.4515 23.6734 11.7283C23.0372 12.3084 22.4953 12.9894 22.0683 13.7455C21.5101 14.7788 21.2207 15.9429 21.2281 17.125C21.2486 18.5769 21.6105 19.8556 22.3236 20.9613C22.8478 21.7808 23.5291 22.4816 24.3258 23.0209C24.7337 23.3036 25.0848 23.4978 25.4213 23.6285C25.2638 24.1316 25.0956 24.6186 24.897 25.1015C24.4467 26.1845 23.9009 27.2228 23.2665 28.2033C22.7011 29.0475 22.258 29.6763 21.9216 30.0948C21.3973 30.7337 20.8926 31.2217 20.383 31.5617C19.8225 31.9441 19.1603 32.1483 18.4874 32.1483C18.0317 32.1663 17.576 32.1096 17.1376 31.9803C16.761 31.8495 16.3884 31.7076 16.0216 31.5457C15.6402 31.3655 15.247 31.2132 14.8449 31.0899C13.8508 30.8273 12.8086 30.8255 11.8137 31.0849C11.4058 31.2056 11.0136 31.3464 10.6263 31.5195C10.0815 31.7549 9.71955 31.9129 9.51024 31.9803C9.09258 32.1061 8.65928 32.1845 8.22108 32.2107C7.54324 32.2107 6.91138 32.0115 6.28538 31.608L6.30201 31.5939ZM15.242 6.82848C14.3558 7.28425 13.5098 7.47843 12.6696 7.41505C12.5375 6.54476 12.6696 5.65435 13.0207 4.67943C13.3196 3.85348 13.7614 3.08996 14.3245 2.42574C14.9192 1.72651 15.6409 1.15338 16.449 0.738487C17.3097 0.282718 18.1304 0.03622 18.9148 0C19.0166 0.911538 18.9148 1.80798 18.5891 2.77687C18.2877 3.63336 17.8468 4.43085 17.2853 5.1352C16.7122 5.83538 16.0088 6.41073 15.2166 6.82748L15.242 6.82848Z" fill="white"/>
</svg>
