<svg width="34" height="40" viewBox="0 0 34 40" fill="none" xmlns="http://www.w3.org/2000/svg">
<path d="M16.3035 0.295351C7.50243 0.648095 0.338196 8.09258 0.0118534 17.2271C-0.345083 27.2566 7.40554 35.4645 16.9918 35.4645V39.3815C16.9918 39.5974 17.1907 39.7606 17.3947 39.7079C28.1793 36.7649 33.9361 27.3461 33.9361 17.8957C33.9361 7.9399 25.9765 -0.0889826 16.3035 0.295351ZM24.0796 22.9868H11.1228C10.4191 22.9868 9.85311 22.3971 9.85311 21.6653C9.85311 20.9388 10.4242 20.3439 11.1228 20.3439H24.0796V22.9868ZM24.0796 19.3435H11.1228C10.4191 19.3435 9.85311 18.7539 9.85311 18.0221C9.85311 17.2955 10.4242 16.7006 11.1228 16.7006H24.0796V19.3435ZM24.0796 15.7003H11.1228C10.4191 15.7003 9.85311 15.1106 9.85311 14.3788C9.85311 13.6523 10.4242 13.0573 11.1228 13.0573H24.0796V15.7003Z" fill="#F0F0F0"/>
</svg>
