<svg width="56" height="56" viewBox="0 0 56 56" fill="none" xmlns="http://www.w3.org/2000/svg">
<rect x="0.5" y="0.5" width="55" height="55" rx="7.5" stroke="#7E06F2"/>
<path d="M23.9999 27.3333L26.6666 30L32.6666 24M38.6666 28C38.6666 34.5446 31.528 39.3045 28.9306 40.8198C28.6354 40.992 28.4878 41.0781 28.2795 41.1228C28.1178 41.1575 27.882 41.1575 27.7203 41.1228C27.512 41.0781 27.3645 40.992 27.0693 40.8198C24.4719 39.3045 17.3333 34.5446 17.3333 28V21.6235C17.3333 20.5574 17.3333 20.0244 17.5076 19.5663C17.6616 19.1615 17.9119 18.8004 18.2368 18.514C18.6046 18.1899 19.1036 18.0028 20.1018 17.6285L27.2509 14.9476C27.528 14.8436 27.6666 14.7916 27.8092 14.771C27.9357 14.7528 28.0641 14.7528 28.1906 14.771C28.3332 14.7916 28.4718 14.8436 28.749 14.9476L35.898 17.6285C36.8962 18.0028 37.3953 18.1899 37.763 18.514C38.0879 18.8004 38.3382 19.1615 38.4922 19.5663C38.6666 20.0244 38.6666 20.5574 38.6666 21.6235V28Z" stroke="white" stroke-width="2" stroke-linecap="round" stroke-linejoin="round"/>
</svg>
