<svg width="20" height="25" viewBox="0 0 20 25" fill="none" xmlns="http://www.w3.org/2000/svg">
<path d="M16.7043 13.2199C16.6784 10.1202 19.2462 8.60932 19.3658 8.54181C17.9103 6.42343 15.6543 6.13267 14.859 6.11191C12.9617 5.91463 11.1267 7.24381 10.1598 7.24381C9.17736 7.24381 7.69065 6.13267 6.08444 6.16385C4.02074 6.19498 2.09222 7.38919 1.037 9.23758C-1.14625 13.0122 0.480807 18.5573 2.57567 21.6103C3.62047 23.1056 4.84209 24.7723 6.44313 24.7151C8.00775 24.6528 8.59516 23.7182 10.4821 23.7182C12.3535 23.7182 12.9044 24.7151 14.5367 24.6788C16.2157 24.6528 17.2761 23.1783 18.2846 21.6726C19.4958 19.9592 19.9792 18.2718 20 18.1887C19.9584 18.1627 16.7355 16.9322 16.7043 13.2199ZM13.6218 4.10258C14.4639 3.04859 15.0409 1.62078 14.8798 0.166992C13.6634 0.218885 12.1351 1.00808 11.2618 2.03615C10.4873 2.94475 9.79072 4.42966 9.9727 5.82635C11.3346 5.92499 12.7433 5.13579 13.6218 4.10258Z" fill="#F0F0F0"/>
</svg>
