<svg width="20" height="22" viewBox="0 0 20 22" fill="none" xmlns="http://www.w3.org/2000/svg">
<path d="M0.508456 21.8363C0.169469 21.667 0 21.2438 0 20.8205C0 20.7359 0 20.5666 0 20.4819C0 14.2182 0 7.95437 0 1.77524C0 1.43665 0.0847346 1.18275 0.169469 0.844162C0.254252 0.674843 0.423721 0.505573 0.593239 0.336304C4.23726 3.97604 7.79655 7.61578 11.3558 11.2556C7.71181 14.6414 4.15252 18.1965 0.508456 21.8363Z" fill="#F0F0F0"/>
<path d="M14.9151 7.53116C13.8982 8.54692 12.7965 9.56264 11.7796 10.663C8.38976 7.19257 4.91521 3.7221 1.52539 0.251627C1.52539 0.251627 1.52539 0.166992 1.61012 0.166992C6.0169 2.6217 10.4236 5.07645 14.9151 7.53116Z" fill="#F0F0F0"/>
<path d="M1.52539 21.8363C4.91521 18.4505 8.38976 15.0647 11.7796 11.6788C12.7118 12.6099 13.7287 13.541 14.8304 14.5568C10.4236 17.0115 6.0169 19.4662 1.61012 21.8363H1.52539Z" fill="#F0F0F0"/>
<path d="M15.4239 14.2182C14.3222 13.2024 13.3053 12.1867 12.2036 11.171C13.3053 10.0706 14.407 8.97017 15.5086 7.86977C15.8476 8.03904 16.1866 8.20836 16.5256 8.46226C17.373 8.97017 18.3053 9.39339 19.1527 9.90125C19.407 9.98588 19.5764 10.1552 19.7459 10.4091C20.0849 10.8323 20.0849 11.2556 19.7459 11.6788C19.5764 11.8481 19.407 12.0174 19.1527 12.102C17.9663 12.8639 16.6951 13.541 15.4239 14.2182Z" fill="#F0F0F0"/>
</svg>
